<svg data-v-423bf9ae="" xmlns="http://www.w3.org/2000/svg" viewBox="0 0 353 109" class="iconLeftSlogan"><!----><!----><!----><g data-v-423bf9ae="" id="7cfcd05e-d864-4d77-a6f7-041a64563298" fill="white" transform="matrix(5.660377154786554,0,0,5.660377154786554,123.3675653363896,-0.622641140925964)"><path d="M0.67 5.73C0.67 7.36 1.16 8.68 2.00 9.52C2.87 10.39 4.24 10.71 5.81 10.71C6.93 10.71 8.22 10.40 8.89 10.04L9.09 7.70L8.67 7.70C8.27 9.16 7.56 10.22 5.73 10.22C2.84 10.22 2.24 7.38 2.24 5.68C2.24 3.39 3.15 1.09 5.75 1.09C7.18 1.09 8.18 1.68 8.44 3.33L8.86 3.33L8.86 1.15C8.23 0.85 7.17 0.60 5.89 0.60C4.17 0.60 2.79 1.11 1.95 2.04C1.15 2.94 0.67 4.14 0.67 5.73ZM9.87 10.50L13.27 10.50L13.27 10.09C12.31 10.02 12.22 9.97 12.22 9.28L12.22 6.01C12.22 5.66 12.24 5.46 12.35 5.25C12.64 4.69 13.29 4.23 14.03 4.23C14.98 4.23 15.50 4.76 15.50 5.98L15.50 9.28C15.50 9.97 15.43 10.02 14.45 10.09L14.45 10.50L17.86 10.50L17.86 10.09C16.90 10.02 16.81 9.97 16.81 9.28L16.81 5.70C16.81 4.28 16.04 3.47 14.74 3.47C13.72 3.47 13.09 3.95 12.21 4.54L12.21 0.20L12.11 0.11L9.93 0.46L9.93 0.81L10.46 0.88C10.82 0.94 10.91 1.01 10.91 1.51L10.91 9.28C10.91 9.97 10.85 10.02 9.87 10.09ZM18.76 8.68C18.76 9.73 19.46 10.67 20.78 10.67C21.59 10.67 22.41 10.12 22.86 9.83C23.06 10.35 23.28 10.67 23.77 10.67C24.29 10.67 24.89 10.51 25.42 10.25L25.34 9.91C25.14 9.95 24.84 9.98 24.63 9.93C24.37 9.87 24.14 9.60 24.14 8.72L24.14 5.33C24.14 4.52 23.95 3.47 21.84 3.47C20.26 3.47 19.01 4.30 19.01 5.07C19.01 5.52 19.53 5.73 19.80 5.73C20.09 5.73 20.17 5.57 20.24 5.33C20.55 4.30 21.13 3.96 21.69 3.96C22.23 3.96 22.88 4.24 22.88 5.36L22.88 5.95C22.53 6.31 21.17 6.66 20.06 7.01C19.05 7.32 18.76 8.02 18.76 8.68ZM20.17 8.48C20.17 7.83 20.48 7.49 21.27 7.20C21.83 6.99 22.57 6.72 22.88 6.52L22.88 8.50C22.88 9.63 22.01 9.93 21.46 9.93C20.59 9.93 20.17 9.31 20.17 8.48ZM25.83 4.20L26.84 4.20L26.84 9.07C26.84 10.50 27.90 10.67 28.39 10.67C29.11 10.67 29.78 10.30 30.18 10.05L30.07 9.76C29.74 9.90 29.43 9.94 29.08 9.94C28.60 9.94 28.15 9.60 28.15 8.54L28.15 4.20L29.96 4.20L29.96 3.64L28.15 3.64L28.15 1.88L27.75 1.88L26.89 3.64L25.83 3.64ZM30.65 4.20L31.65 4.20L31.65 9.07C31.65 10.50 32.72 10.67 33.21 10.67C33.92 10.67 34.59 10.30 35 10.05L34.89 9.76C34.55 9.90 34.24 9.94 33.89 9.94C33.42 9.94 32.97 9.60 32.97 8.54L32.97 4.20L34.78 4.20L34.78 3.64L32.97 3.64L32.97 1.88L32.56 1.88L31.71 3.64L30.65 3.64ZM35.48 10.50L39.17 10.50L39.17 10.09C37.93 10.02 37.84 10.00 37.84 9.28L37.84 6.01C37.84 4.93 38.32 4.56 38.64 4.56C38.86 4.56 39.10 4.65 39.51 4.87C39.61 4.93 39.72 4.94 39.79 4.94C40.12 4.94 40.43 4.59 40.43 4.16C40.43 3.85 40.24 3.47 39.69 3.47C39.19 3.47 38.77 3.78 37.84 4.59L37.67 3.47L35.55 3.82L35.55 4.17L36.08 4.24C36.44 4.30 36.53 4.37 36.53 4.87L36.53 9.28C36.53 10.00 36.46 10.02 35.48 10.09Z"></path></g><!----><g data-v-423bf9ae="" id="736f3ffe-6051-47d3-8e71-c635183a5ded" transform="matrix(1.0980553521050347,0,0,1.0980553521050347,-0.7310309937132047,0.7423499671069749)" stroke="none" fill="white"><path d="M95.267 21.241a3.862 3.862 0 100-7.724 3.858 3.858 0 00-3.752 2.982l-19.04 3.862a6.584 6.584 0 00-4.693-3.498l-.3-8.391A4.413 4.413 0 0065.75 0a4.414 4.414 0 00-4.414 4.414 4.405 4.405 0 003.396 4.283l.295 8.255a6.586 6.586 0 00-3.929 2.786L45.49 10.299c.073-.296.123-.602.123-.92a3.861 3.861 0 10-7.724 0 3.861 3.861 0 006.032 3.193l16.183 9.789c-.048.319-.08.644-.08.976 0 .963.212 1.875.583 2.699L36.021 50.564a6.556 6.556 0 00-4.165-1.486c-1.343 0-2.59.404-3.631 1.094L16.558 38.505a5.345 5.345 0 00.985-3.088 5.379 5.379 0 10-5.379 5.379c.813 0 1.577-.194 2.268-.518l11.865 11.866a6.546 6.546 0 00-1.025 3.518c0 .497.06.979.164 1.444l-16.813 5.65a3.862 3.862 0 10-3.217 5.993 3.85 3.85 0 003.803-3.28l17.398-5.846a6.569 6.569 0 004.183 2.527l-.003 9.885a4.408 4.408 0 00.964 8.714 4.414 4.414 0 004.414-4.413 4.405 4.405 0 00-2.62-4.025l.004-10.294a6.592 6.592 0 004.271-3.58l22.252 4.481c-.033.234-.072.465-.072.707a5.126 5.126 0 005.125 5.125c.374 0 .736-.045 1.087-.121l3.639 8.99c-1.05.836-1.737 2.107-1.737 3.555 0 .74.193 1.43.508 2.047l-7.385 7.743c-.033-.013-.062-.034-.097-.046a3.86 3.86 0 10-2.614 7.266 3.862 3.862 0 004.941-2.327 3.847 3.847 0 00-.189-3.035l7.281-7.637a4.5 4.5 0 002.105.538c1.195 0 2.273-.47 3.086-1.224l13.693 9.205a3.81 3.81 0 00-.228 1.261 3.861 3.861 0 103.86-3.862c-.668 0-1.289.186-1.838.486l-14.119-9.491a4.551 4.551 0 00-4.455-5.478c-.08 0-.153.019-.231.022l-3.754-9.337a5.1 5.1 0 001.571-3.682 5.126 5.126 0 00-5.125-5.125c-1.594 0-3.001.743-3.94 1.886l-22.749-4.652c0-.024.003-.047.003-.071 0-1.056-.254-2.05-.696-2.934l24.501-24.472a6.554 6.554 0 004.363 1.663 6.55 6.55 0 003.656-1.11l12.703 12.703a4.388 4.388 0 00-.391 1.797 4.414 4.414 0 104.414-4.414c-.787 0-1.516.223-2.154.584L72.183 26.826a6.548 6.548 0 001.008-3.49c0-.103-.011-.202-.016-.304L91.9 19.235c.658 1.191 1.911 2.006 3.367 2.006z"></path></g><!----><g data-v-423bf9ae="" id="8a44a8ab-0079-4e74-b6c6-e056d44fc796" fill="white" transform="matrix(0.827756324442044,0,0,0.827756324442044,126.64681581987352,57.26840598204306)"><path d="M0.62 8.90L0.62 8.90Q0.62 7.38 1.20 6.16Q1.79 4.94 3.02 4.19Q4.24 3.44 5.92 3.44L5.92 3.44Q6.78 3.44 7.64 3.70Q8.51 3.95 9.03 4.20L9.03 4.20L9.55 4.47Q9.59 4.47 9.69 4.40Q9.79 4.33 9.84 4.33L9.84 4.33Q9.91 4.33 9.98 4.38Q10.05 4.44 10.05 4.55L10.05 4.55Q10.07 4.96 10.12 5.41Q10.16 5.87 10.21 6.16Q10.25 6.45 10.25 6.51L10.25 6.51Q10.25 6.76 10.08 6.76L10.08 6.76Q9.95 6.76 9.84 6.57L9.84 6.57Q8.48 4.02 5.92 4.02L5.92 4.02Q4.17 4.02 3.05 5.14Q1.93 6.26 1.93 8.06L1.93 8.06Q1.93 9.06 2.19 9.93Q2.45 10.79 2.98 11.51Q3.50 12.24 4.42 12.66Q5.35 13.08 6.58 13.08L6.58 13.08Q8.60 13.08 9.97 10.98L9.97 10.98Q10.02 10.88 10.18 10.88L10.18 10.88Q10.30 10.88 10.30 11.07L10.30 11.07Q10.30 11.23 10.26 11.49Q10.21 11.75 10.14 12.06Q10.07 12.38 10.05 12.45L10.05 12.45Q10.02 12.60 9.83 12.70L9.83 12.70Q9.07 13.06 8.64 13.24Q8.22 13.43 7.56 13.57Q6.90 13.72 6.22 13.72L6.22 13.72Q5.00 13.72 4.02 13.43Q3.04 13.13 2.42 12.66Q1.79 12.18 1.37 11.54Q0.95 10.91 0.78 10.25Q0.62 9.60 0.62 8.90ZM18.91 8.69L18.91 8.69Q18.91 6.34 20.33 4.84Q21.74 3.33 24.33 3.33L24.33 3.33Q25.54 3.33 26.50 3.68Q27.47 4.03 28.03 4.54Q28.59 5.05 28.97 5.71Q29.34 6.37 29.48 6.92Q29.62 7.48 29.62 7.95L29.62 7.95Q29.62 9.86 28.88 11.16Q28.14 12.47 26.93 13.07Q25.72 13.66 24.14 13.66L24.14 13.66Q22.47 13.66 21.26 12.94Q20.05 12.21 19.48 11.10Q18.91 10.00 18.91 8.69ZM20.15 7.98L20.15 7.98Q20.15 8.54 20.30 9.19Q20.45 9.84 20.80 10.54Q21.15 11.23 21.65 11.78Q22.15 12.33 22.91 12.69Q23.67 13.05 24.58 13.05L24.58 13.05Q25.06 13.05 25.59 12.90Q26.11 12.75 26.63 12.45Q27.15 12.14 27.55 11.70Q27.96 11.26 28.22 10.62Q28.48 9.98 28.48 9.24L28.48 9.24Q28.48 6.71 27.15 5.30Q25.82 3.89 23.86 3.89L23.86 3.89Q22.32 3.89 21.23 4.93Q20.15 5.96 20.15 7.98ZM37.31 3.77L37.31 3.77Q37.31 3.68 37.41 3.60Q37.51 3.53 37.66 3.53L37.66 3.53Q37.74 3.53 37.94 3.54Q38.14 3.54 38.19 3.54L38.19 3.54Q38.40 3.54 38.58 3.53Q38.77 3.51 38.88 3.51L38.88 3.51Q39.00 3.51 39.17 3.59Q39.34 3.67 39.37 3.75L39.37 3.75Q39.40 3.79 39.52 3.94Q39.65 4.09 39.86 4.33Q40.07 4.56 40.24 4.79L40.24 4.79Q42.14 7.27 45.33 10.77L45.33 10.77Q45.42 10.86 45.54 10.99Q45.65 11.12 45.70 11.18Q45.75 11.24 45.81 11.30Q45.86 11.35 45.90 11.38Q45.93 11.40 45.96 11.40L45.96 11.40Q46.10 11.40 46.10 10.53L46.10 10.53L46.10 8.89Q46.10 7.95 46.09 7.31Q46.09 6.66 46.08 6.38Q46.07 6.09 46.07 6.02L46.07 6.02L46.07 5.92Q46.07 5.45 46.01 5.11Q45.95 4.77 45.86 4.59Q45.78 4.41 45.62 4.28Q45.46 4.16 45.35 4.12Q45.23 4.09 45.02 4.05Q44.81 4.00 44.73 3.98L44.73 3.98Q44.45 3.89 44.45 3.74L44.45 3.74Q44.45 3.53 44.72 3.53L44.72 3.53Q44.80 3.53 45.39 3.54Q45.98 3.54 46.05 3.54L46.05 3.54Q46.38 3.54 46.80 3.53Q47.21 3.51 47.31 3.51L47.31 3.51Q47.54 3.51 47.64 3.56Q47.73 3.61 47.73 3.75L47.73 3.75Q47.73 3.81 47.65 3.86Q47.57 3.91 47.49 3.94Q47.40 3.98 47.32 4.00L47.32 4.00L47.24 4.03Q46.77 4.28 46.77 5.61L46.77 5.61L46.77 6.15Q46.77 7.21 46.70 9.83Q46.62 12.46 46.62 13.08L46.62 13.08L46.62 13.36Q46.62 13.68 46.42 13.68L46.42 13.68Q46.30 13.68 46.20 13.58L46.20 13.58Q41.55 8.19 40.65 7.17Q39.75 6.16 39.65 6.16L39.65 6.16Q39.51 6.16 39.51 7.11L39.51 7.11Q39.51 8.44 39.45 9.97Q39.40 11.51 39.40 11.65L39.40 11.65Q39.40 12.28 39.61 12.61Q39.83 12.94 40.08 12.98Q40.33 13.02 40.55 13.07Q40.77 13.12 40.77 13.26L40.77 13.26Q40.77 13.41 40.72 13.45Q40.67 13.50 40.54 13.50L40.54 13.50Q40.45 13.50 40.10 13.48Q39.76 13.47 39.05 13.47L39.05 13.47Q38.92 13.47 38.53 13.48Q38.14 13.50 37.86 13.50L37.86 13.50Q37.55 13.50 37.55 13.27L37.55 13.27Q37.55 13.15 37.73 13.11Q37.91 13.08 38.18 12.89Q38.44 12.71 38.58 12.21L38.58 12.21Q38.67 11.89 38.79 9.60Q38.92 7.32 38.92 6.45L38.92 6.45Q38.92 5.25 38.58 4.65Q38.25 4.06 37.49 3.98L37.49 3.98Q37.31 3.96 37.31 3.77ZM55.48 3.77L55.48 3.77Q55.48 3.68 55.58 3.60Q55.68 3.53 55.83 3.53L55.83 3.53Q55.92 3.53 56.11 3.54Q56.31 3.54 56.36 3.54L56.36 3.54Q56.57 3.54 56.76 3.53Q56.94 3.51 57.05 3.51L57.05 3.51Q57.18 3.51 57.34 3.59Q57.51 3.67 57.54 3.75L57.54 3.75Q57.57 3.79 57.69 3.94Q57.82 4.09 58.03 4.33Q58.24 4.56 58.41 4.79L58.41 4.79Q60.31 7.27 63.50 10.77L63.50 10.77Q63.59 10.86 63.71 10.99Q63.83 11.12 63.88 11.18Q63.92 11.24 63.98 11.30Q64.04 11.35 64.07 11.38Q64.11 11.40 64.13 11.40L64.13 11.40Q64.27 11.40 64.27 10.53L64.27 10.53L64.27 8.89Q64.27 7.95 64.27 7.31Q64.26 6.66 64.25 6.38Q64.25 6.09 64.25 6.02L64.25 6.02L64.25 5.92Q64.25 5.45 64.18 5.11Q64.12 4.77 64.04 4.59Q63.95 4.41 63.79 4.28Q63.63 4.16 63.52 4.12Q63.41 4.09 63.20 4.05Q62.99 4.00 62.90 3.98L62.90 3.98Q62.62 3.89 62.62 3.74L62.62 3.74Q62.62 3.53 62.89 3.53L62.89 3.53Q62.97 3.53 63.56 3.54Q64.15 3.54 64.22 3.54L64.22 3.54Q64.55 3.54 64.97 3.53Q65.38 3.51 65.48 3.51L65.48 3.51Q65.72 3.51 65.81 3.56Q65.90 3.61 65.90 3.75L65.90 3.75Q65.90 3.81 65.82 3.86Q65.74 3.91 65.66 3.94Q65.58 3.98 65.49 4.00L65.49 4.00L65.41 4.03Q64.95 4.28 64.95 5.61L64.95 5.61L64.95 6.15Q64.95 7.21 64.87 9.83Q64.79 12.46 64.79 13.08L64.79 13.08L64.79 13.36Q64.79 13.68 64.60 13.68L64.60 13.68Q64.47 13.68 64.37 13.58L64.37 13.58Q59.72 8.19 58.82 7.17Q57.92 6.16 57.82 6.16L57.82 6.16Q57.68 6.16 57.68 7.11L57.68 7.11Q57.68 8.44 57.62 9.97Q57.57 11.51 57.57 11.65L57.57 11.65Q57.57 12.28 57.78 12.61Q58.00 12.94 58.25 12.98Q58.51 13.02 58.72 13.07Q58.94 13.12 58.94 13.26L58.94 13.26Q58.94 13.41 58.89 13.45Q58.84 13.50 58.72 13.50L58.72 13.50Q58.62 13.50 58.27 13.48Q57.93 13.47 57.22 13.47L57.22 13.47Q57.09 13.47 56.70 13.48Q56.31 13.50 56.03 13.50L56.03 13.50Q55.72 13.50 55.72 13.27L55.72 13.27Q55.72 13.15 55.90 13.11Q56.08 13.08 56.35 12.89Q56.62 12.71 56.76 12.21L56.76 12.21Q56.84 11.89 56.97 9.60Q57.09 7.32 57.09 6.45L57.09 6.45Q57.09 5.25 56.76 4.65Q56.42 4.06 55.66 3.98L55.66 3.98Q55.48 3.96 55.48 3.77ZM73.65 3.65L73.65 3.65Q73.65 3.46 74.05 3.46L74.05 3.46Q74.10 3.46 74.23 3.47Q74.35 3.49 74.42 3.49L74.42 3.49Q74.47 3.49 75.74 3.52Q77.01 3.56 77.84 3.56L77.84 3.56Q78.13 3.56 79.29 3.53Q80.44 3.50 80.64 3.50L80.64 3.50Q80.91 3.50 80.91 3.82L80.91 3.82Q80.91 3.91 80.82 4.38Q80.74 4.84 80.74 5.25L80.74 5.25Q80.74 5.38 80.67 5.47Q80.60 5.56 80.51 5.56L80.51 5.56Q80.30 5.56 80.30 5.26L80.30 5.26Q80.30 4.89 80.07 4.58Q79.83 4.27 79.48 4.26L79.48 4.26Q78.22 4.16 77.55 4.16L77.55 4.16L77.18 4.16Q76.45 4.16 76.33 4.26Q76.22 4.37 76.19 5.01L76.19 5.01Q76.13 6.02 76.13 7.35L76.13 7.35Q76.13 8.05 76.40 8.06L76.40 8.06L76.75 8.06L77.34 8.06L77.77 8.06Q78.61 8.06 78.89 8.01Q79.17 7.95 79.39 7.80L79.39 7.80Q79.66 7.62 79.72 7.28L79.72 7.28Q79.76 7.04 79.91 7.04L79.91 7.04Q80.04 7.04 80.07 7.08Q80.09 7.13 80.09 7.27L80.09 7.27Q80.09 7.36 80.04 7.91Q79.98 8.46 79.98 8.74L79.98 8.74Q79.98 9.00 80.00 9.24Q80.02 9.48 80.02 9.59L80.02 9.59Q80.02 9.94 79.93 9.94L79.93 9.94Q79.72 9.94 79.62 9.60L79.62 9.60Q79.42 9.02 79.27 8.92L79.27 8.92Q78.97 8.72 77.92 8.72L77.92 8.72Q77.50 8.72 77.24 8.72Q76.99 8.72 76.91 8.71Q76.83 8.71 76.78 8.71Q76.73 8.71 76.69 8.71L76.69 8.71Q76.12 8.71 76.12 8.97L76.12 8.97Q76.12 9.38 76.10 9.99Q76.09 10.60 76.09 10.99L76.09 10.99L76.09 11.55Q76.09 12.56 76.43 12.66L76.43 12.66Q76.78 12.77 77.03 12.77L77.03 12.77Q78.08 12.77 78.87 12.67Q79.66 12.57 80.06 12.42Q80.46 12.28 80.72 12.10Q80.99 11.93 81.07 11.78Q81.14 11.63 81.22 11.54Q81.30 11.44 81.38 11.44L81.38 11.44Q81.55 11.44 81.55 11.68L81.55 11.68Q81.55 12.28 80.95 12.89Q80.35 13.51 79.90 13.51L79.90 13.51Q78.89 13.51 77.62 13.44Q76.36 13.37 76.05 13.37L76.05 13.37Q75.66 13.37 75.07 13.43Q74.48 13.50 74.14 13.50L74.14 13.50Q73.85 13.50 73.85 13.36L73.85 13.36Q73.85 13.23 73.85 13.19Q73.85 13.15 73.89 13.12Q73.93 13.09 73.98 13.08Q74.03 13.08 74.16 13.03Q74.30 12.99 74.45 12.92L74.45 12.92Q74.79 12.75 74.89 12.26Q75.00 11.77 75.00 10.21L75.00 10.21L75.00 8.47Q75.00 8.09 75.02 7.29Q75.04 6.50 75.04 6.05L75.04 6.05Q75.04 5.67 75.01 4.77L75.01 4.77Q75.00 4.37 74.66 4.14Q74.33 3.92 73.88 3.91L73.88 3.91Q73.65 3.91 73.65 3.65ZM89.45 8.90L89.45 8.90Q89.45 7.38 90.03 6.16Q90.62 4.94 91.85 4.19Q93.07 3.44 94.75 3.44L94.75 3.44Q95.61 3.44 96.47 3.70Q97.34 3.95 97.86 4.20L97.86 4.20L98.38 4.47Q98.42 4.47 98.52 4.40Q98.62 4.33 98.67 4.33L98.67 4.33Q98.74 4.33 98.81 4.38Q98.88 4.44 98.88 4.55L98.88 4.55Q98.90 4.96 98.94 5.41Q98.99 5.87 99.04 6.16Q99.08 6.45 99.08 6.51L99.08 6.51Q99.08 6.76 98.91 6.76L98.91 6.76Q98.78 6.76 98.67 6.57L98.67 6.57Q97.31 4.02 94.75 4.02L94.75 4.02Q93.00 4.02 91.88 5.14Q90.76 6.26 90.76 8.06L90.76 8.06Q90.76 9.06 91.02 9.93Q91.28 10.79 91.80 11.51Q92.33 12.24 93.25 12.66Q94.18 13.08 95.41 13.08L95.41 13.08Q97.43 13.08 98.80 10.98L98.80 10.98Q98.85 10.88 99.01 10.88L99.01 10.88Q99.13 10.88 99.13 11.07L99.13 11.07Q99.13 11.23 99.08 11.49Q99.04 11.75 98.97 12.06Q98.90 12.38 98.88 12.45L98.88 12.45Q98.85 12.60 98.66 12.70L98.66 12.70Q97.90 13.06 97.47 13.24Q97.05 13.43 96.39 13.57Q95.73 13.72 95.05 13.72L95.05 13.72Q93.83 13.72 92.85 13.43Q91.87 13.13 91.25 12.66Q90.62 12.18 90.20 11.54Q89.78 10.91 89.61 10.25Q89.45 9.60 89.45 8.90ZM107.41 5.32L107.41 5.32Q107.41 4.76 107.55 3.88L107.55 3.88Q107.55 3.85 107.56 3.78Q107.56 3.71 107.57 3.69Q107.58 3.67 107.58 3.62Q107.59 3.57 107.60 3.55Q107.62 3.53 107.64 3.49Q107.66 3.46 107.69 3.44Q107.72 3.43 107.76 3.42Q107.80 3.40 107.86 3.39Q107.91 3.39 107.98 3.39L107.98 3.39Q108.21 3.39 109.17 3.44Q110.12 3.50 111.93 3.50L111.93 3.50Q115.01 3.50 116.24 3.43L116.24 3.43Q116.26 3.43 116.29 3.42Q116.33 3.42 116.34 3.42L116.34 3.42Q116.49 3.42 116.55 3.50Q116.61 3.58 116.61 3.65L116.61 3.65Q116.61 3.75 116.65 4.24Q116.69 4.73 116.69 4.79L116.69 4.79Q116.69 5.14 116.65 5.23Q116.61 5.32 116.47 5.32L116.47 5.32Q116.35 5.32 116.31 5.15L116.31 5.15Q116.20 4.75 116.12 4.60Q116.03 4.45 115.75 4.34Q115.47 4.23 114.90 4.23L114.90 4.23L113.08 4.23Q112.74 4.23 112.67 4.36Q112.59 4.49 112.59 5.12L112.59 5.12L112.59 5.81Q112.59 7.69 112.57 9.11Q112.55 10.54 112.55 10.93L112.55 10.93Q112.55 11.13 112.54 11.43Q112.53 11.73 112.53 11.84L112.53 11.84Q112.53 12.45 112.73 12.64L112.73 12.64Q112.91 12.81 113.13 12.90Q113.36 12.99 113.52 13.01Q113.68 13.02 113.79 13.08Q113.90 13.13 113.90 13.26L113.90 13.26Q113.90 13.41 113.83 13.45Q113.76 13.50 113.57 13.50L113.57 13.50Q113.40 13.50 112.83 13.44Q112.25 13.38 112.01 13.38L112.01 13.38Q111.85 13.38 111.33 13.43Q110.82 13.48 110.59 13.48L110.59 13.48Q110.07 13.48 110.07 13.26L110.07 13.26Q110.07 13.12 110.15 13.07Q110.24 13.02 110.48 12.98Q110.73 12.95 110.80 12.94L110.80 12.94Q111.27 12.82 111.33 12.38L111.33 12.38Q111.47 11.14 111.47 7.08L111.47 7.08L111.45 4.58Q111.45 4.31 111.30 4.25Q111.15 4.19 110.39 4.19L110.39 4.19Q109.41 4.19 108.91 4.24Q108.42 4.30 108.33 4.35Q108.25 4.40 108.14 4.54L108.14 4.54Q108.01 4.70 107.93 4.91Q107.86 5.11 107.83 5.24Q107.81 5.38 107.75 5.47Q107.69 5.56 107.56 5.56L107.56 5.56Q107.41 5.56 107.41 5.32ZM134.23 3.65L134.23 3.65Q134.23 3.46 134.62 3.46L134.62 3.46Q134.68 3.46 134.81 3.47Q134.93 3.49 135.00 3.49L135.00 3.49Q135.04 3.49 136.32 3.52Q137.59 3.56 138.42 3.56L138.42 3.56Q138.71 3.56 139.87 3.53Q141.02 3.50 141.22 3.50L141.22 3.50Q141.48 3.50 141.48 3.82L141.48 3.82Q141.48 3.91 141.40 4.38Q141.32 4.84 141.32 5.25L141.32 5.25Q141.32 5.38 141.25 5.47Q141.18 5.56 141.09 5.56L141.09 5.56Q140.88 5.56 140.88 5.26L140.88 5.26Q140.88 4.89 140.64 4.58Q140.41 4.27 140.06 4.26L140.06 4.26Q138.80 4.16 138.12 4.16L138.12 4.16L137.76 4.16Q137.03 4.16 136.91 4.26Q136.79 4.37 136.77 5.01L136.77 5.01Q136.71 6.02 136.71 7.35L136.71 7.35Q136.71 8.05 136.98 8.06L136.98 8.06L137.33 8.06L137.91 8.06L138.35 8.06Q139.19 8.06 139.47 8.01Q139.75 7.95 139.97 7.80L139.97 7.80Q140.24 7.62 140.29 7.28L140.29 7.28Q140.34 7.04 140.49 7.04L140.49 7.04Q140.62 7.04 140.64 7.08Q140.67 7.13 140.67 7.27L140.67 7.27Q140.67 7.36 140.62 7.91Q140.56 8.46 140.56 8.74L140.56 8.74Q140.56 9.00 140.58 9.24Q140.60 9.48 140.60 9.59L140.60 9.59Q140.60 9.94 140.50 9.94L140.50 9.94Q140.29 9.94 140.20 9.60L140.20 9.60Q140 9.02 139.85 8.92L139.85 8.92Q139.55 8.72 138.50 8.72L138.50 8.72Q138.08 8.72 137.82 8.72Q137.56 8.72 137.49 8.71Q137.41 8.71 137.36 8.71Q137.31 8.71 137.27 8.71L137.27 8.71Q136.70 8.71 136.70 8.97L136.70 8.97Q136.70 9.38 136.68 9.99Q136.67 10.60 136.67 10.99L136.67 10.99L136.67 11.55Q136.67 12.56 137.00 12.66L137.00 12.66Q137.35 12.77 137.61 12.77L137.61 12.77Q138.66 12.77 139.45 12.67Q140.24 12.57 140.64 12.42Q141.04 12.28 141.30 12.10Q141.57 11.93 141.65 11.78Q141.72 11.63 141.80 11.54Q141.88 11.44 141.96 11.44L141.96 11.44Q142.13 11.44 142.13 11.68L142.13 11.68Q142.13 12.28 141.53 12.89Q140.92 13.51 140.48 13.51L140.48 13.51Q139.47 13.51 138.20 13.44Q136.93 13.37 136.63 13.37L136.63 13.37Q136.23 13.37 135.65 13.43Q135.06 13.50 134.72 13.50L134.72 13.50Q134.43 13.50 134.43 13.36L134.43 13.36Q134.43 13.23 134.43 13.19Q134.43 13.15 134.47 13.12Q134.51 13.09 134.56 13.08Q134.61 13.08 134.74 13.03Q134.88 12.99 135.03 12.92L135.03 12.92Q135.37 12.75 135.47 12.26Q135.58 11.77 135.58 10.21L135.58 10.21L135.58 8.47Q135.58 8.09 135.60 7.29Q135.62 6.50 135.62 6.05L135.62 6.05Q135.62 5.67 135.59 4.77L135.59 4.77Q135.58 4.37 135.24 4.14Q134.90 3.92 134.46 3.91L134.46 3.91Q134.23 3.91 134.23 3.65ZM149.69 13.33L149.69 13.33Q149.69 13.13 149.90 13.06L149.90 13.06Q150.35 12.89 150.68 12.31Q151.02 11.73 152.35 8.83L152.35 8.83Q153.72 5.87 154.77 3.63L154.77 3.63Q154.87 3.42 154.94 3.36Q155.02 3.30 155.19 3.30L155.19 3.30Q155.32 3.30 155.36 3.36Q155.40 3.42 155.54 3.82L155.54 3.82Q155.62 4.06 155.69 4.23Q155.75 4.40 155.89 4.77Q156.03 5.15 156.20 5.56L156.20 5.56Q156.65 6.66 157.74 9.22Q158.84 11.77 158.94 11.98L158.94 11.98Q159.18 12.46 159.47 12.71Q159.77 12.95 159.98 12.97Q160.20 12.99 160.35 13.04Q160.50 13.09 160.50 13.26L160.50 13.26Q160.50 13.47 160.12 13.47L160.12 13.47Q159.96 13.47 159.52 13.43Q159.07 13.38 158.86 13.38L158.86 13.38Q158.59 13.38 158.17 13.41Q157.75 13.44 157.56 13.44L157.56 13.44Q157.12 13.44 157.00 13.40Q156.88 13.37 156.88 13.24L156.88 13.24Q156.88 13.15 157.00 13.08Q157.11 13.02 157.23 13.00Q157.36 12.98 157.47 12.87Q157.58 12.77 157.58 12.59L157.58 12.59Q157.58 12.28 157.23 11.33Q156.88 10.37 156.65 9.93L156.65 9.93Q156.52 9.69 156.07 9.69L156.07 9.69Q156.00 9.69 155.46 9.70Q154.91 9.72 154.38 9.72L154.38 9.72L153.64 9.72Q153.01 9.72 152.84 9.79Q152.68 9.86 152.56 10.12L152.56 10.12Q152.47 10.30 152.28 10.70Q152.08 11.10 152.01 11.26Q151.94 11.41 151.84 11.65Q151.73 11.90 151.70 12.05Q151.66 12.19 151.66 12.31L151.66 12.31Q151.66 12.63 151.82 12.80Q151.98 12.96 152.18 12.98Q152.38 13.01 152.54 13.06Q152.70 13.12 152.70 13.26L152.70 13.26Q152.70 13.36 152.66 13.40Q152.61 13.45 152.46 13.45L152.46 13.45Q152.38 13.45 151.98 13.45Q151.58 13.44 151.30 13.44L151.30 13.44Q150.99 13.44 150.60 13.47Q150.22 13.50 150.09 13.50L150.09 13.50Q149.69 13.50 149.69 13.33ZM153.20 8.71L153.20 8.71Q153.20 8.89 153.33 8.93Q153.45 8.97 153.92 8.97L153.92 8.97L154.35 8.97L155.68 8.96Q156.23 8.96 156.23 8.74L156.23 8.74Q156.23 8.55 155.54 7.01Q154.85 5.46 154.67 5.46L154.67 5.46Q154.55 5.46 153.87 7.01Q153.20 8.55 153.20 8.71ZM168.39 10.82L168.39 10.82Q168.39 10.53 168.59 10.53L168.59 10.53Q168.77 10.53 168.81 10.67L168.81 10.67Q168.95 11.00 169.07 11.25Q169.19 11.49 169.46 11.85Q169.72 12.21 170.03 12.44Q170.34 12.67 170.82 12.84Q171.30 13.01 171.88 13.01L171.88 13.01Q172.93 13.01 173.56 12.45Q174.20 11.90 174.20 11.00L174.20 11.00Q174.20 10.35 173.77 9.90Q173.33 9.46 172.77 9.27Q172.21 9.09 171.35 8.77Q170.49 8.46 169.95 8.13L169.95 8.13Q168.67 7.38 168.67 6.08L168.67 6.08Q168.67 4.83 169.57 4.08Q170.48 3.33 171.92 3.33L171.92 3.33Q172.45 3.33 173.19 3.56Q173.92 3.79 173.94 3.79L173.94 3.79Q173.98 3.79 174.09 3.74Q174.20 3.68 174.26 3.68L174.26 3.68Q174.44 3.68 174.47 3.79L174.47 3.79Q174.76 5.49 174.76 5.70L174.76 5.70Q174.76 6.09 174.57 6.09L174.57 6.09Q174.44 6.09 174.37 5.89L174.37 5.89Q174.20 5.49 174.04 5.24Q173.88 4.98 173.81 4.91Q173.74 4.84 173.45 4.58L173.45 4.58Q172.69 3.91 171.61 3.91L171.61 3.91Q170.74 3.91 170.16 4.33Q169.57 4.75 169.57 5.46L169.57 5.46Q169.57 6.09 169.91 6.50Q170.25 6.90 170.83 7.13Q171.40 7.35 172.03 7.55Q172.66 7.74 173.37 8.09Q174.08 8.44 174.54 8.93L174.54 8.93Q175.10 9.53 175.10 10.43L175.10 10.43Q175.10 11.90 174.16 12.76Q173.22 13.62 171.84 13.62L171.84 13.62Q170.87 13.62 170.28 13.52Q169.69 13.41 169.08 13.09L169.08 13.09Q168.90 12.98 168.64 12.00Q168.39 11.02 168.39 10.82ZM183.19 3.71L183.19 3.71Q183.19 3.50 183.58 3.50L183.58 3.50Q183.72 3.50 184.23 3.53Q184.73 3.56 185.16 3.56L185.16 3.56Q185.43 3.56 185.67 3.54Q185.92 3.53 186.40 3.53L186.40 3.53Q186.77 3.53 186.77 3.72L186.77 3.72Q186.77 3.84 186.13 4.10L186.13 4.10Q185.68 4.28 185.68 5.71L185.68 5.71Q185.68 7.60 185.66 9.05Q185.64 10.50 185.64 10.89L185.64 10.89Q185.64 12.07 185.99 12.59L185.99 12.59Q186.30 13.02 186.66 13.02L186.66 13.02Q186.69 13.02 186.80 13.03Q186.91 13.03 186.94 13.03L186.94 13.03Q187.04 13.03 187.14 13.08Q187.24 13.13 187.24 13.19L187.24 13.19Q187.24 13.34 187.16 13.39Q187.08 13.44 186.89 13.44L186.89 13.44Q186.47 13.44 186.11 13.41Q185.75 13.38 185.56 13.38L185.56 13.38Q185.16 13.38 184.70 13.42Q184.24 13.45 184.02 13.45L184.02 13.45Q183.39 13.45 183.39 13.24L183.39 13.24Q183.39 13.12 183.52 13.07Q183.65 13.02 183.82 13.00Q183.99 12.98 184.17 12.82Q184.35 12.66 184.42 12.35L184.42 12.35Q184.45 12.25 184.51 10.76Q184.58 9.27 184.58 8.61L184.58 8.61L184.58 7.81Q184.58 7.63 184.58 7.12Q184.59 6.61 184.59 6.30L184.59 6.30L184.59 5.66Q184.59 5.04 184.53 4.63L184.53 4.63Q184.49 4.30 184.16 4.12Q183.83 3.93 183.48 3.92L183.48 3.92Q183.19 3.91 183.19 3.71ZM194.78 3.71L194.78 3.71Q194.78 3.46 195.16 3.46L195.16 3.46Q195.22 3.46 195.34 3.47Q195.47 3.49 195.54 3.49L195.54 3.49Q195.68 3.49 196.06 3.51Q196.45 3.54 196.76 3.54L196.76 3.54Q197.19 3.54 197.68 3.51Q198.17 3.49 198.23 3.49L198.23 3.49Q198.46 3.49 198.46 3.63L198.46 3.63Q198.46 3.82 198.30 3.88Q198.13 3.95 197.92 3.97Q197.72 3.99 197.53 4.28Q197.34 4.56 197.32 5.14L197.32 5.14Q197.29 5.68 197.25 8.19Q197.20 10.70 197.20 10.99L197.20 10.99L197.20 11.55Q197.20 12.56 197.54 12.66L197.54 12.66Q197.89 12.77 198.14 12.77L198.14 12.77Q199.19 12.77 199.98 12.67Q200.77 12.57 201.17 12.42Q201.57 12.28 201.84 12.10Q202.10 11.93 202.18 11.78Q202.26 11.63 202.33 11.54Q202.41 11.44 202.50 11.44L202.50 11.44Q202.66 11.44 202.66 11.68L202.66 11.68Q202.66 12.28 202.06 12.89Q201.46 13.51 201.01 13.51L201.01 13.51Q200.00 13.51 198.74 13.44Q197.47 13.37 197.16 13.37L197.16 13.37Q196.77 13.37 196.26 13.43Q195.75 13.48 195.41 13.48L195.41 13.48Q195.01 13.48 195.01 13.31L195.01 13.31Q195.01 13.22 195.08 13.15Q195.16 13.09 195.23 13.09L195.23 13.09Q195.44 13.09 195.64 12.95L195.64 12.95Q195.89 12.75 196.00 12.23Q196.11 11.70 196.11 10.21L196.11 10.21L196.11 8.47Q196.11 8.09 196.13 7.29Q196.15 6.50 196.15 6.05L196.15 6.05Q196.15 5.67 196.13 4.77L196.13 4.77Q196.11 4.37 195.78 4.14Q195.44 3.92 194.99 3.91L194.99 3.91Q194.85 3.91 194.82 3.86Q194.78 3.81 194.78 3.71ZM208.73 3.81L208.73 3.81Q208.73 3.65 208.89 3.61Q209.05 3.57 209.59 3.57L209.59 3.57Q209.68 3.57 209.98 3.58Q210.28 3.60 210.41 3.60L210.41 3.60Q210.56 3.60 210.97 3.59Q211.39 3.58 211.60 3.58L211.60 3.58Q212.30 3.58 212.30 3.75L212.30 3.75Q212.30 3.91 212.00 4.01Q211.71 4.12 211.71 4.24L211.71 4.24Q211.71 4.38 211.80 4.61Q211.89 4.83 211.98 4.97Q212.07 5.11 212.25 5.38Q212.44 5.64 212.46 5.70L212.46 5.70Q212.94 6.45 213.45 7.14Q213.96 7.83 214.03 7.83L214.03 7.83Q214.12 7.83 214.24 7.66Q214.37 7.50 214.59 7.13Q214.82 6.75 214.97 6.52L214.97 6.52Q215.01 6.45 215.17 6.22Q215.33 5.98 215.40 5.88Q215.46 5.78 215.59 5.58Q215.71 5.38 215.77 5.27Q215.82 5.17 215.90 5.02Q215.98 4.87 216.01 4.77Q216.03 4.68 216.03 4.59L216.03 4.59Q216.03 4.14 215.56 4.03L215.56 4.03Q215.50 4.02 215.40 4.00Q215.29 3.99 215.24 3.98Q215.19 3.96 215.12 3.93Q215.05 3.91 215.03 3.86Q215.00 3.81 215.00 3.74L215.00 3.74Q215.00 3.57 215.39 3.57L215.39 3.57Q215.46 3.57 215.65 3.58Q215.84 3.58 215.96 3.58L215.96 3.58Q216.29 3.58 216.74 3.59Q217.20 3.60 217.45 3.60L217.45 3.60Q218.13 3.60 218.13 3.81L218.13 3.81Q218.13 3.86 218.05 3.91Q217.97 3.95 217.81 4.02Q217.66 4.09 217.53 4.19L217.53 4.19Q216.96 4.63 215.84 6.31Q214.73 7.99 214.58 8.19L214.58 8.19Q214.35 8.47 214.30 8.81Q214.24 9.14 214.24 9.95L214.24 9.95Q214.24 10.14 214.25 10.73Q214.26 11.33 214.26 11.58L214.26 11.58L214.26 11.91Q214.26 12.38 214.42 12.64Q214.58 12.91 214.72 12.96Q214.86 13.01 215.00 13.01L215.00 13.01Q215.03 13.01 215.14 13.01Q215.25 13.02 215.28 13.02L215.28 13.02Q215.38 13.02 215.43 13.08Q215.49 13.15 215.49 13.22L215.49 13.22Q215.49 13.36 215.42 13.40Q215.35 13.44 215.15 13.44L215.15 13.44Q215.08 13.44 214.54 13.43Q214.00 13.43 213.75 13.43L213.75 13.43Q213.26 13.43 212.86 13.45Q212.45 13.48 212.21 13.48L212.21 13.48Q211.82 13.48 211.82 13.33L211.82 13.33Q211.82 13.20 211.90 13.15Q211.97 13.10 212.16 13.09Q212.34 13.08 212.42 13.05L212.42 13.05Q213.01 12.87 213.01 12.19L213.01 12.19Q213.01 12.11 213.02 11.92Q213.02 11.73 213.03 11.12Q213.04 10.50 213.04 9.35L213.04 9.35Q213.04 9.13 213.00 8.97Q212.97 8.81 212.92 8.65Q212.87 8.50 212.68 8.20Q212.49 7.91 212.31 7.64Q212.13 7.36 211.69 6.72Q211.25 6.08 210.84 5.46L210.84 5.46Q210.41 4.80 210.06 4.46Q209.71 4.12 209.52 4.05Q209.33 3.99 209.08 3.99L209.08 3.99Q208.73 3.99 208.73 3.81Z"></path></g></svg>