<svg data-v-423bf9ae="" xmlns="http://www.w3.org/2000/svg" viewBox="0 0 225.05660776618353 60" class="font"><!----><!----><!----><g data-v-423bf9ae="" id="357afec4-1a3d-495a-a5a4-8352d731e923" fill="black" transform="matrix(5.660377154786554,0,0,5.660377154786554,-3.7924535845088343,-0.622641140925964)"><path d="M0.67 5.73C0.67 7.36 1.16 8.68 2.00 9.52C2.87 10.39 4.24 10.71 5.81 10.71C6.93 10.71 8.22 10.40 8.89 10.04L9.09 7.70L8.67 7.70C8.27 9.16 7.56 10.22 5.73 10.22C2.84 10.22 2.24 7.38 2.24 5.68C2.24 3.39 3.15 1.09 5.75 1.09C7.18 1.09 8.18 1.68 8.44 3.33L8.86 3.33L8.86 1.15C8.23 0.85 7.17 0.60 5.89 0.60C4.17 0.60 2.79 1.11 1.95 2.04C1.15 2.94 0.67 4.14 0.67 5.73ZM9.87 10.50L13.27 10.50L13.27 10.09C12.31 10.02 12.22 9.97 12.22 9.28L12.22 6.01C12.22 5.66 12.24 5.46 12.35 5.25C12.64 4.69 13.29 4.23 14.03 4.23C14.98 4.23 15.50 4.76 15.50 5.98L15.50 9.28C15.50 9.97 15.43 10.02 14.45 10.09L14.45 10.50L17.86 10.50L17.86 10.09C16.90 10.02 16.81 9.97 16.81 9.28L16.81 5.70C16.81 4.28 16.04 3.47 14.74 3.47C13.72 3.47 13.09 3.95 12.21 4.54L12.21 0.20L12.11 0.11L9.93 0.46L9.93 0.81L10.46 0.88C10.82 0.94 10.91 1.01 10.91 1.51L10.91 9.28C10.91 9.97 10.85 10.02 9.87 10.09ZM18.76 8.68C18.76 9.73 19.46 10.67 20.78 10.67C21.59 10.67 22.41 10.12 22.86 9.83C23.06 10.35 23.28 10.67 23.77 10.67C24.29 10.67 24.89 10.51 25.42 10.25L25.34 9.91C25.14 9.95 24.84 9.98 24.63 9.93C24.37 9.87 24.14 9.60 24.14 8.72L24.14 5.33C24.14 4.52 23.95 3.47 21.84 3.47C20.26 3.47 19.01 4.30 19.01 5.07C19.01 5.52 19.53 5.73 19.80 5.73C20.09 5.73 20.17 5.57 20.24 5.33C20.55 4.30 21.13 3.96 21.69 3.96C22.23 3.96 22.88 4.24 22.88 5.36L22.88 5.95C22.53 6.31 21.17 6.66 20.06 7.01C19.05 7.32 18.76 8.02 18.76 8.68ZM20.17 8.48C20.17 7.83 20.48 7.49 21.27 7.20C21.83 6.99 22.57 6.72 22.88 6.52L22.88 8.50C22.88 9.63 22.01 9.93 21.46 9.93C20.59 9.93 20.17 9.31 20.17 8.48ZM25.83 4.20L26.84 4.20L26.84 9.07C26.84 10.50 27.90 10.67 28.39 10.67C29.11 10.67 29.78 10.30 30.18 10.05L30.07 9.76C29.74 9.90 29.43 9.94 29.08 9.94C28.60 9.94 28.15 9.60 28.15 8.54L28.15 4.20L29.96 4.20L29.96 3.64L28.15 3.64L28.15 1.88L27.75 1.88L26.89 3.64L25.83 3.64ZM30.65 4.20L31.65 4.20L31.65 9.07C31.65 10.50 32.72 10.67 33.21 10.67C33.92 10.67 34.59 10.30 35 10.05L34.89 9.76C34.55 9.90 34.24 9.94 33.89 9.94C33.42 9.94 32.97 9.60 32.97 8.54L32.97 4.20L34.78 4.20L34.78 3.64L32.97 3.64L32.97 1.88L32.56 1.88L31.71 3.64L30.65 3.64ZM35.48 10.50L39.17 10.50L39.17 10.09C37.93 10.02 37.84 10.00 37.84 9.28L37.84 6.01C37.84 4.93 38.32 4.56 38.64 4.56C38.86 4.56 39.10 4.65 39.51 4.87C39.61 4.93 39.72 4.94 39.79 4.94C40.12 4.94 40.43 4.59 40.43 4.16C40.43 3.85 40.24 3.47 39.69 3.47C39.19 3.47 38.77 3.78 37.84 4.59L37.67 3.47L35.55 3.82L35.55 4.17L36.08 4.24C36.44 4.30 36.53 4.37 36.53 4.87L36.53 9.28C36.53 10.00 36.46 10.02 35.48 10.09Z"></path></g><!----><!----></svg>